# Blender v2.78 (sub 0) OBJ File: '11.blend'
# www.blender.org
mtllib Ant_01.mtl
g Ant_01_Cube
v -1.089576 1.521889 1.665371
v -1.089576 3.092029 1.665371
v -1.557648 1.075690 -0.518716
v -1.557648 3.309916 -0.734884
v 1.089576 1.521889 1.665371
v 1.089576 3.092029 1.665371
v 1.557648 1.075690 -0.518716
v 1.557648 3.309916 -0.734884
v 0.000000 0.897947 -0.501518
v 0.000000 3.693369 -0.759619
v 0.000000 1.396977 1.665371
v 0.000000 3.346244 1.665371
v 0.000000 1.373374 0.000000
v 0.000000 3.370785 0.000000
v 1.117556 3.111956 0.000000
v 1.117556 1.501494 0.000000
v -1.117556 3.111956 0.000000
v -1.117556 1.501494 0.000000
v -1.435406 2.838240 -6.823838
v -1.435406 0.779353 -6.624634
v -0.000000 0.615559 -7.139235
v -0.000000 3.073832 -7.377080
v 1.435406 2.838240 -6.823838
v 1.435406 0.779353 -6.624634
v -1.381251 1.351215 1.907919
v -1.381251 3.341676 1.907919
v 1.381251 3.341676 1.907919
v 1.381251 1.351215 1.907919
v 0.000000 1.192864 1.907919
v 0.000000 3.993793 1.907919
v -1.784272 1.057452 3.419786
v -1.784272 3.628688 3.419786
v 1.784272 3.628688 3.419786
v 1.784272 1.057452 3.419786
v 0.000000 0.852898 3.486488
v 0.000000 4.347262 3.486488
v -1.514652 1.253979 4.919451
v -1.514652 3.436677 4.919451
v 1.514652 3.436677 4.919451
v 1.514652 1.253979 4.919451
v 0.000000 1.080335 5.232306
v 0.000000 4.110792 5.232306
v -2.179368 3.889523 -2.271064
v -2.335397 3.823200 -4.853140
v -2.335397 0.473404 -4.529037
v -2.179368 0.763529 -1.968614
v -0.000000 0.206911 -4.503254
v -0.000000 0.514842 -1.944553
v -0.000000 4.206506 -4.890226
v -0.000000 4.375019 -2.305672
v 2.179368 3.889523 -2.271064
v 2.335397 3.823200 -4.853140
v 2.179368 0.763529 -1.968614
v 2.335397 0.473404 -4.529037
v 1.395247 1.378883 3.201887
v 1.123150 1.786544 3.201887
v 1.395247 1.378883 2.711761
v 1.123150 1.786544 2.711761
v 3.941597 3.134606 3.201888
v 3.753608 3.655994 3.201888
v 3.941597 3.134606 2.711761
v 3.753608 3.655994 2.711761
v 3.620849 2.864381 2.711761
v 3.348752 3.272042 2.711761
v 3.620849 2.864381 3.201888
v 3.348752 3.272042 3.201888
v 6.983666 0.012331 3.201888
v 6.983666 0.012331 2.711761
v 6.327912 0.011838 3.201888
v 6.327912 0.011838 2.711761
v 1.239342 1.378883 4.702374
v 0.981857 1.786544 4.614407
v 1.397799 1.378883 4.238569
v 1.140314 1.786544 4.150601
v 3.648947 3.134606 5.525603
v 3.471054 3.655994 5.464826
v 3.807404 3.134606 5.061798
v 3.629510 3.655994 5.001021
v 3.503881 2.864381 4.958101
v 3.246396 3.272042 4.870131
v 3.345424 2.864381 5.421906
v 3.087939 3.272042 5.333938
v 6.499536 0.012331 5.927217
v 6.713008 0.012331 5.463411
v 5.878996 0.011838 5.769851
v 6.092468 0.011838 5.306046
v 0.991931 1.548130 1.208625
v 0.733129 1.955791 1.292638
v 0.840599 1.548130 0.742446
v 0.581797 1.955791 0.826459
v 3.656491 3.134606 0.422411
v 3.477687 3.655994 0.480455
v 3.505158 3.134606 -0.043768
v 3.326355 3.655994 0.014276
v 3.200083 2.864381 0.055267
v 2.941280 3.272042 0.139280
v 3.351415 2.864381 0.521445
v 3.092613 3.272042 0.605459
v 6.517802 0.012331 0.038854
v 6.313928 0.012331 -0.427325
v 5.894088 0.011838 0.189145
v 5.690213 0.011838 -0.277034
v -1.093904 1.518734 5.486855
v -1.093904 3.095112 5.486855
v 1.093904 3.095112 5.486855
v 1.093904 1.518734 5.486855
v 0.000000 1.393326 5.737720
v 0.000000 3.351557 5.737720
v -1.093904 1.518734 6.600408
v -1.093904 3.095112 6.600408
v 1.093904 3.095112 6.600408
v 1.093904 1.518734 6.600408
v 0.000000 1.393326 6.336388
v 0.000000 3.351557 6.360221
v -1.805200 1.328490 6.790426
v -1.805200 3.912536 7.090369
v 1.805200 3.912536 7.090369
v 1.805200 1.328490 6.790426
v -0.000000 1.122917 6.766564
v -0.000000 4.208220 7.124690
v -1.805200 1.156822 8.269371
v -1.805200 3.740868 8.569313
v 1.805200 3.740868 8.569313
v 1.805200 1.156822 8.269371
v -0.000000 0.858795 9.042009
v -0.000000 3.944098 9.400136
v -1.413360 1.467668 9.269331
v -1.413360 2.945306 9.440847
v 1.413360 2.945306 9.440847
v 1.413360 1.467668 9.269331
v -0.000000 1.234331 9.874259
v -0.000000 3.104423 10.091330
v -1.395247 1.378883 3.201887
v -1.123150 1.786544 3.201887
v -1.395247 1.378883 2.711761
v -1.123150 1.786544 2.711761
v -3.941597 3.134606 3.201888
v -3.753608 3.655994 3.201888
v -3.941597 3.134606 2.711761
v -3.753608 3.655994 2.711761
v -3.620849 2.864381 2.711761
v -3.348752 3.272042 2.711761
v -3.620849 2.864381 3.201888
v -3.348752 3.272042 3.201888
v -6.983666 0.012331 3.201888
v -6.983666 0.012331 2.711761
v -6.327912 0.011838 3.201888
v -6.327912 0.011838 2.711761
v -1.239342 1.378883 4.702374
v -0.981857 1.786544 4.614407
v -1.397799 1.378883 4.238569
v -1.140314 1.786544 4.150601
v -3.648947 3.134606 5.525603
v -3.471054 3.655994 5.464826
v -3.807404 3.134606 5.061798
v -3.629510 3.655994 5.001021
v -3.503881 2.864381 4.958101
v -3.246396 3.272042 4.870131
v -3.345424 2.864381 5.421906
v -3.087939 3.272042 5.333938
v -6.499536 0.012331 5.927217
v -6.713008 0.012331 5.463411
v -5.878996 0.011838 5.769851
v -6.092468 0.011838 5.306046
v -0.991931 1.548130 1.208625
v -0.733129 1.955791 1.292638
v -0.840599 1.548130 0.742446
v -0.581797 1.955791 0.826459
v -3.656491 3.134606 0.422411
v -3.477687 3.655994 0.480455
v -3.505158 3.134606 -0.043768
v -3.326355 3.655994 0.014276
v -3.200083 2.864381 0.055267
v -2.941280 3.272042 0.139280
v -3.351415 2.864381 0.521445
v -3.092613 3.272042 0.605459
v -6.517802 0.012331 0.038854
v -6.313928 0.012331 -0.427325
v -5.894088 0.011838 0.189145
v -5.690213 0.011838 -0.277034
v -1.990031 9.023885 9.456648
v -1.614254 9.078295 9.486296
v -1.990031 9.212112 9.111214
v -1.614254 9.266523 9.140862
v 1.624731 9.082027 9.415419
v 1.979551 9.030652 9.387424
v 1.624731 9.259757 9.089250
v 1.979551 9.208382 9.061255
v 1.128732 6.440736 7.976181
v 1.128732 6.618466 7.650011
v 1.483553 6.567090 7.622017
v 1.483553 6.389360 7.948186
v -1.494032 6.570821 7.671975
v -1.494032 6.382594 8.017408
v -1.118254 6.437005 8.047057
v -1.118254 6.625232 7.701623
v -1.090489 4.008466 7.831648
v -0.714712 4.070017 7.838793
v -1.090489 4.053824 7.440884
v -0.714712 4.115375 7.448028
v 0.725190 4.076531 7.767682
v 1.080011 4.018414 7.760936
v 0.725190 4.119360 7.398710
v 1.080011 4.061242 7.391964
v -0.045695 1.291813 9.860498
v -0.045695 3.049051 10.064469
v -1.367665 2.900223 9.456048
v -1.367665 1.510062 9.294685
v 1.367665 1.510062 9.294685
v 1.367665 2.900223 9.456048
v 0.045695 3.049051 10.064469
v 0.045695 1.291813 9.860498
v -0.030123 2.413044 10.584273
v -0.030123 1.254652 10.449812
v -0.901582 1.398524 10.076822
v -0.901582 2.314935 10.183193
v 0.901582 2.314935 10.183193
v 0.901582 1.398524 10.076822
v 0.030123 1.254652 10.449812
v 0.030123 2.413044 10.584273
vn -0.8207 0.0321 0.5704
vn -0.1338 -0.9758 -0.1728
vn 0.9999 0.0000 0.0168
vn -0.6394 0.0000 -0.7689
vn 0.1139 -0.9934 0.0141
vn -0.2264 0.9739 0.0149
vn 0.2264 0.9739 0.0149
vn -0.1139 -0.9934 0.0141
vn -0.0874 -0.7622 -0.6414
vn 0.0876 -0.7275 0.6805
vn 0.2130 0.9015 0.3767
vn -0.9161 -0.0386 -0.3991
vn 0.1338 -0.9758 -0.1728
vn 0.2131 0.8651 -0.4540
vn -0.0876 -0.7275 0.6805
vn 0.9161 -0.0386 -0.3991
vn 0.2009 0.8918 0.4054
vn -0.9999 0.0000 0.0168
vn -0.2130 0.9015 0.3767
vn 0.8207 0.0321 0.5704
vn 0.1068 -0.9712 -0.2131
vn 0.3452 -0.0904 -0.9342
vn -0.3452 -0.0904 -0.9342
vn -0.1124 -0.9604 0.2550
vn -0.2009 0.8918 0.4054
vn 0.9213 0.0374 0.3870
vn 0.1124 -0.9604 0.2550
vn -0.2131 0.8651 -0.4540
vn -0.1068 -0.9712 -0.2131
vn 0.0874 -0.7622 -0.6414
vn 0.1576 0.4295 -0.8892
vn -0.1576 0.4295 -0.8892
vn 0.6394 0.0000 -0.7689
vn 0.9842 0.0000 0.1769
vn -0.3992 0.9041 0.1525
vn -0.9663 0.0000 -0.2576
vn 0.3820 0.8938 -0.2350
vn -0.3820 0.8938 -0.2350
vn 0.9663 0.0000 -0.2576
vn -0.3636 0.5752 0.7328
vn 0.3636 0.5752 0.7328
vn -0.1286 -0.9819 0.1390
vn 0.1286 -0.9819 0.1390
vn -0.9842 0.0000 0.1769
vn 0.3992 0.9041 0.1525
vn -0.9982 0.0058 0.0602
vn -0.1139 -0.9864 0.1187
vn 0.1894 0.9811 -0.0389
vn 0.9982 0.0058 0.0602
vn 0.1139 -0.9864 0.1187
vn -0.1894 0.9811 -0.0389
vn -0.9213 0.0374 0.3870
vn -0.8317 -0.5552 0.0000
vn 0.0000 0.0000 -1.0000
vn 0.9407 0.3392 0.0000
vn 0.0000 -0.0000 1.0000
vn 0.7162 0.6978 0.0000
vn -0.5552 0.8317 0.0000
vn -0.6881 0.7256 0.0000
vn 0.5552 -0.8317 0.0000
vn 0.0008 -1.0000 -0.0000
vn -0.7254 -0.6884 -0.0000
vn -0.7871 -0.5552 -0.2689
vn 0.3233 -0.0000 -0.9463
vn 0.8902 0.3392 0.3041
vn -0.3233 -0.0000 0.9463
vn 0.6887 0.6704 0.2761
vn -0.5253 0.8317 -0.1795
vn -0.6512 0.7256 -0.2225
vn 0.5253 -0.8317 0.1795
vn 0.0007 -1.0000 0.0003
vn 0.2426 0.1021 -0.9647
vn -0.2437 -0.0986 0.9648
vn -0.6972 -0.6601 -0.2796
vn -0.7911 -0.5552 0.2568
vn -0.3088 -0.0000 -0.9511
vn 0.8948 0.3392 -0.2905
vn 0.2873 -0.0150 0.9577
vn 0.6973 0.6658 -0.2656
vn -0.4492 0.8814 0.1458
vn -0.6545 0.7256 0.2125
vn 0.4492 -0.8814 -0.1458
vn 0.3088 -0.0000 0.9511
vn -0.2873 0.0150 -0.9577
vn 0.0007 -1.0000 -0.0003
vn -0.2334 -0.0910 -0.9681
vn 0.2324 0.0942 0.9680
vn -0.7065 -0.6546 0.2691
vn 0.1139 -0.9935 0.0000
vn -0.1139 -0.9935 0.0000
vn 0.8033 0.0000 0.5956
vn -0.2082 -0.8247 0.5258
vn 0.2082 -0.8247 0.5258
vn -0.8033 0.0000 0.5956
vn 0.4066 0.0657 -0.9112
vn -0.1624 0.5466 -0.8215
vn -1.0000 0.0000 0.0000
vn 0.2282 0.9736 0.0000
vn -0.2282 0.9736 0.0000
vn 1.0000 0.0000 0.0000
vn 0.1139 -0.9869 -0.1146
vn -0.1493 -0.7041 -0.6942
vn 0.1493 -0.7041 -0.6942
vn -0.4066 0.0657 -0.9112
vn 0.1624 0.5466 -0.8215
vn -0.3104 -0.8665 0.3910
vn 0.9255 -0.0437 0.3762
vn 0.1805 0.9700 0.1629
vn -0.2452 0.9630 0.1118
vn -0.1139 -0.9869 -0.1146
vn -0.1381 -0.9887 -0.0587
vn -0.8612 -0.0586 0.5049
vn 0.3104 -0.8665 0.3910
vn -0.9255 -0.0437 0.3762
vn 0.3926 0.5845 0.7101
vn -0.3926 0.5845 0.7101
vn 0.8317 -0.5552 0.0000
vn -0.9407 0.3392 0.0000
vn -0.7162 0.6978 0.0000
vn 0.5552 0.8317 0.0000
vn 0.6881 0.7256 0.0000
vn -0.5552 -0.8317 0.0000
vn -0.0008 -1.0000 -0.0000
vn 0.7254 -0.6884 -0.0000
vn 0.7871 -0.5552 -0.2689
vn -0.3233 -0.0000 -0.9463
vn -0.8902 0.3392 0.3041
vn 0.3233 -0.0000 0.9463
vn -0.6887 0.6704 0.2761
vn 0.5253 0.8317 -0.1795
vn 0.6512 0.7256 -0.2225
vn -0.5253 -0.8317 0.1795
vn -0.0007 -1.0000 0.0003
vn -0.2426 0.1021 -0.9647
vn 0.2437 -0.0986 0.9648
vn 0.6972 -0.6601 -0.2796
vn 0.7911 -0.5552 0.2568
vn 0.3088 -0.0000 -0.9511
vn -0.8948 0.3392 -0.2905
vn -0.2873 -0.0150 0.9577
vn -0.6973 0.6658 -0.2656
vn 0.4492 0.8814 0.1458
vn 0.6545 0.7256 0.2125
vn -0.4492 -0.8814 -0.1458
vn -0.3088 -0.0000 0.9511
vn 0.2873 0.0150 -0.9577
vn -0.0007 -1.0000 -0.0003
vn 0.2334 -0.0910 -0.9681
vn -0.2324 0.0942 0.9680
vn 0.7065 -0.6546 0.2691
vn 0.9867 -0.1429 -0.0778
vn 0.0000 -0.4785 0.8781
vn 0.9867 0.1429 0.0778
vn 0.0000 0.4785 -0.8781
vn -0.9867 0.1429 0.0778
vn -0.1627 0.8664 0.4721
vn 0.1627 0.8664 0.4721
vn -0.0350 -0.0887 0.9954
vn 0.9860 -0.1589 -0.0504
vn 0.0350 -0.0892 0.9954
vn -0.9861 -0.1584 -0.0503
vn 0.0331 0.1012 -0.9943
vn -0.9860 0.1589 0.0504
vn -0.9867 -0.1429 -0.0778
vn -0.1599 0.9846 -0.0708
vn -0.0767 0.9904 0.1150
vn -0.1814 0.9693 0.1659
vn 0.9861 0.1584 0.0503
vn 0.2440 0.9633 0.1118
vn 0.1589 0.9820 -0.1021
vn 0.0779 0.9903 0.1150
vn -0.0331 0.1010 -0.9943
vn -0.4059 -0.1054 0.9078
vn 0.4059 -0.1054 0.9078
vn 0.3944 0.5757 0.7162
vn 0.8612 -0.0586 0.5049
vn -0.3944 0.5757 0.7162
vn -0.9997 0.0030 -0.0262
vn 0.9997 0.0030 -0.0262
vn 0.1381 -0.9887 -0.0587
usemtl 1A1A1A
s off
f 18//1 17//1 4//1 3//1
f 47//2 45//2 20//2 21//2
f 16//3 15//3 6//3 5//3
f 2//4 1//4 25//4 26//4
f 13//5 16//5 5//5 11//5
f 14//6 17//6 2//6 12//6
f 15//7 14//7 12//7 6//7
f 18//8 13//8 11//8 1//8
f 1//9 11//9 29//9 25//9
f 9//10 7//10 16//10 13//10
f 8//11 10//11 14//11 15//11
f 45//12 44//12 19//12 20//12
f 54//13 47//13 21//13 24//13
f 49//14 52//14 23//14 22//14
f 3//15 9//15 13//15 18//15
f 52//16 54//16 24//16 23//16
f 8//17 51//17 50//17 10//17
f 1//18 2//18 17//18 18//18
f 10//19 4//19 17//19 14//19
f 7//20 8//20 15//20 16//20
f 29//21 28//21 34//21 35//21
f 21//22 22//22 23//22 24//22
f 20//23 19//23 22//23 21//23
f 3//24 46//24 48//24 9//24
f 10//25 50//25 43//25 4//25
f 7//26 53//26 51//26 8//26
f 9//27 48//27 53//27 7//27
f 44//28 49//28 22//28 19//28
f 25//29 29//29 35//29 31//29
f 11//30 5//30 28//30 29//30
f 6//31 12//31 30//31 27//31
f 12//32 2//32 26//32 30//32
f 5//33 6//33 27//33 28//33
f 34//34 33//34 39//34 40//34
f 36//35 32//35 38//35 42//35
f 26//36 25//36 31//36 32//36
f 27//37 30//37 36//37 33//37
f 30//38 26//38 32//38 36//38
f 28//39 27//39 33//39 34//39
f 42//40 38//40 104//40 108//40
f 39//41 42//41 108//41 105//41
f 31//42 35//42 41//42 37//42
f 35//43 34//43 40//43 41//43
f 32//44 31//44 37//44 38//44
f 33//45 36//45 42//45 39//45
f 44//46 45//46 46//46 43//46
f 48//47 46//47 45//47 47//47
f 50//48 51//48 52//48 49//48
f 51//49 53//49 54//49 52//49
f 53//50 48//50 47//50 54//50
f 43//51 50//51 49//51 44//51
f 4//52 43//52 46//52 3//52
f 55//53 56//53 58//53 57//53
f 63//54 64//54 62//54 61//54
f 61//55 62//55 60//55 59//55
f 65//56 66//56 56//56 55//56
f 61//57 59//57 67//57 68//57
f 64//58 58//58 56//58 66//58
f 62//59 64//59 66//59 60//59
f 57//60 63//60 65//60 55//60
f 59//56 60//56 66//56 65//56
f 57//54 58//54 64//54 63//54
f 70//61 68//61 67//61 69//61
f 63//54 61//54 68//54 70//54
f 59//56 65//56 69//56 67//56
f 65//62 63//62 70//62 69//62
f 71//63 72//63 74//63 73//63
f 79//64 80//64 78//64 77//64
f 77//65 78//65 76//65 75//65
f 81//66 82//66 72//66 71//66
f 77//67 75//67 83//67 84//67
f 80//68 74//68 72//68 82//68
f 78//69 80//69 82//69 76//69
f 73//70 79//70 81//70 71//70
f 75//66 76//66 82//66 81//66
f 73//64 74//64 80//64 79//64
f 86//71 84//71 83//71 85//71
f 79//72 77//72 84//72 86//72
f 75//73 81//73 85//73 83//73
f 81//74 79//74 86//74 85//74
f 87//75 88//75 90//75 89//75
f 95//76 96//76 94//76 93//76
f 93//77 94//77 92//77 91//77
f 97//78 98//78 88//78 87//78
f 93//79 91//79 99//79 100//79
f 96//80 90//80 88//80 98//80
f 94//81 96//81 98//81 92//81
f 89//82 95//82 97//82 87//82
f 91//83 92//83 98//83 97//83
f 89//84 90//84 96//84 95//84
f 102//85 100//85 99//85 101//85
f 95//86 93//86 100//86 102//86
f 91//87 97//87 101//87 99//87
f 97//88 95//88 102//88 101//88
f 107//89 106//89 112//89 113//89
f 103//90 107//90 113//90 109//90
f 40//91 39//91 105//91 106//91
f 37//92 41//92 107//92 103//92
f 41//93 40//93 106//93 107//93
f 38//94 37//94 103//94 104//94
f 112//95 111//95 117//95 118//95
f 114//96 110//96 116//96 120//96
f 104//97 103//97 109//97 110//97
f 105//98 108//98 114//98 111//98
f 108//99 104//99 110//99 114//99
f 106//100 105//100 111//100 112//100
f 116//97 115//97 121//97 122//97
f 119//101 118//101 124//101 125//101
f 109//102 113//102 119//102 115//102
f 113//103 112//103 118//103 119//103
f 110//104 109//104 115//104 116//104
f 111//105 114//105 120//105 117//105
f 121//106 125//106 131//106 127//106
f 124//107 123//107 129//107 130//107
f 126//108 123//108 202//108 201//108
f 116//109 122//109 197//109 199//109
f 118//100 117//100 123//100 124//100
f 115//110 119//110 125//110 121//110
f 208//111 205//111 214//111 215//111
f 207//112 208//112 215//112 216//112
f 125//113 124//113 130//113 131//113
f 122//114 121//114 127//114 128//114
f 123//115 126//115 132//115 129//115
f 126//116 122//116 128//116 132//116
f 133//117 135//117 136//117 134//117
f 141//54 139//54 140//54 142//54
f 139//118 137//118 138//118 140//118
f 143//56 133//56 134//56 144//56
f 139//119 146//119 145//119 137//119
f 142//120 144//120 134//120 136//120
f 140//121 138//121 144//121 142//121
f 135//122 133//122 143//122 141//122
f 137//56 143//56 144//56 138//56
f 135//54 141//54 142//54 136//54
f 148//123 147//123 145//123 146//123
f 141//54 148//54 146//54 139//54
f 137//56 145//56 147//56 143//56
f 143//124 147//124 148//124 141//124
f 149//125 151//125 152//125 150//125
f 157//126 155//126 156//126 158//126
f 155//127 153//127 154//127 156//127
f 159//128 149//128 150//128 160//128
f 155//129 162//129 161//129 153//129
f 158//130 160//130 150//130 152//130
f 156//131 154//131 160//131 158//131
f 151//132 149//132 159//132 157//132
f 153//128 159//128 160//128 154//128
f 151//126 157//126 158//126 152//126
f 164//133 163//133 161//133 162//133
f 157//134 164//134 162//134 155//134
f 153//135 161//135 163//135 159//135
f 159//136 163//136 164//136 157//136
f 165//137 167//137 168//137 166//137
f 173//138 171//138 172//138 174//138
f 171//139 169//139 170//139 172//139
f 175//140 165//140 166//140 176//140
f 171//141 178//141 177//141 169//141
f 174//142 176//142 166//142 168//142
f 172//143 170//143 176//143 174//143
f 167//144 165//144 175//144 173//144
f 169//145 175//145 176//145 170//145
f 167//146 173//146 174//146 168//146
f 180//147 179//147 177//147 178//147
f 173//148 180//148 178//148 171//148
f 169//149 177//149 179//149 175//149
f 175//150 179//150 180//150 173//150
f 192//151 191//151 188//151 186//151
f 194//152 195//152 182//152 181//152
f 195//153 196//153 184//153 182//153
f 191//154 190//154 187//154 188//154
f 190//155 189//155 185//155 187//155
f 196//154 193//154 183//154 184//154
f 184//156 183//156 181//156 182//156
f 188//157 187//157 185//157 186//157
f 197//158 198//158 195//158 194//158
f 202//159 204//159 191//159 192//159
f 201//160 202//160 192//160 189//160
f 199//161 197//161 194//161 193//161
f 200//162 199//162 193//162 196//162
f 203//163 201//163 189//163 190//163
f 193//164 194//164 181//164 183//164
f 189//152 192//152 186//152 185//152
f 120//165 116//165 199//165 200//165
f 126//166 120//166 200//166 198//166
f 122//167 126//167 198//167 197//167
f 198//168 200//168 196//168 195//168
f 123//169 117//169 204//169 202//169
f 117//170 120//170 203//170 204//170
f 120//171 126//171 201//171 203//171
f 204//172 203//172 190//172 191//172
f 131//173 132//173 206//173 205//173
f 132//173 128//173 207//173 206//173
f 128//173 127//173 208//173 207//173
f 127//173 131//173 205//173 208//173
f 130//174 129//174 210//174 209//174
f 129//174 132//174 211//174 210//174
f 132//174 131//174 212//174 211//174
f 131//174 130//174 209//174 212//174
f 214//173 213//173 216//173 215//173
f 218//174 217//174 220//174 219//174
f 210//175 211//175 220//175 217//175
f 209//176 210//176 217//176 218//176
f 206//177 207//177 216//177 213//177
f 211//178 212//178 219//178 220//178
f 205//179 206//179 213//179 214//179
f 212//180 209//180 218//180 219//180
